<svg width="306" height="27" viewBox="0 0 306 27" fill="none" xmlns="http://www.w3.org/2000/svg">
<path d="M19.2717 0.0922344C19.2234 0.147038 19.1206 0.189662 19.036 0.189662C18.9514 0.183573 18.7097 0.226198 18.4921 0.281001C18.2746 0.335804 17.8939 0.475856 17.6461 0.591552C17.3983 0.707247 17.0176 0.920371 16.8 1.06651C16.5825 1.21265 16.2501 1.49276 16.0507 1.68761C15.8573 1.88247 15.5854 2.2052 15.4524 2.40614C15.3134 2.60709 15.0898 3.01507 14.9508 3.31953C14.8118 3.6179 14.6487 4.08677 14.5822 4.3547C14.4855 4.78095 14.4734 5.11585 14.4734 6.91218C14.4795 8.58672 14.4976 9.06168 14.5762 9.40877C14.6245 9.64016 14.7635 10.0542 14.8723 10.3222C14.981 10.5901 15.2107 11.0163 15.3739 11.266C15.537 11.5156 15.809 11.8688 15.9782 12.0515C16.1474 12.2281 16.516 12.5325 16.8 12.7213C17.0841 12.9101 17.5313 13.1597 17.7972 13.2693C18.0631 13.3789 18.4559 13.5068 18.6734 13.5555C18.891 13.6043 19.4288 13.6408 19.8639 13.6408C20.3655 13.6408 20.8308 13.6043 21.1028 13.5434C21.3445 13.4946 21.7313 13.3729 21.967 13.2693C22.1966 13.1719 22.5955 12.9588 22.8432 12.8066C23.091 12.6482 23.4898 12.3255 23.7195 12.088C23.9552 11.8566 24.2755 11.4548 24.4265 11.2051C24.5837 10.9554 24.7891 10.5535 24.8919 10.3222C24.9886 10.0847 25.1155 9.67669 25.1698 9.40877C25.2484 9.00079 25.2605 8.57454 25.2484 6.69906C25.2303 4.81748 25.2061 4.42168 25.1215 4.11113C25.0611 3.91019 24.9039 3.51439 24.771 3.22819C24.638 2.942 24.4084 2.5462 24.2634 2.34525C24.1183 2.14431 23.8403 1.82767 23.647 1.63281C23.4536 1.44405 23.1031 1.16394 22.8734 1.01171C22.6378 0.853389 22.257 0.646355 22.0274 0.548927C21.7917 0.451499 21.4412 0.329715 21.2418 0.281001C21.0424 0.226198 20.8127 0.183573 20.7281 0.183573C20.6435 0.189662 20.5347 0.147038 20.4864 0.0922344C20.4139 0.0191636 20.2749 -0.00519334 19.876 0.000895894C19.4832 0.000895894 19.3321 0.0252528 19.2717 0.0922344ZM29.2792 10.9859C29.0133 11.0955 28.5903 11.2903 28.3425 11.4182C28.0947 11.54 27.714 11.7592 27.4965 11.9054C27.2789 12.0454 26.9345 12.3012 26.7229 12.4717C26.5175 12.6482 26.3483 12.8127 26.3483 12.8492C26.3483 12.8796 26.4389 12.9283 26.5477 12.9466C26.6504 12.9649 27.0674 13.1049 27.4663 13.2572C27.8651 13.4094 28.4755 13.6773 28.826 13.86C29.1765 14.0366 29.7445 14.3715 30.095 14.6029C30.4455 14.8282 30.9713 15.224 31.2735 15.4797C31.5696 15.7294 32.1195 16.247 32.4881 16.6306C32.8507 17.0142 33.2979 17.5135 33.4732 17.751C33.6786 18.0311 33.8297 18.3112 33.9083 18.5731C33.9748 18.7923 34.0231 19.0298 34.0231 19.1028V19.2429C34.7966 19.0602 35.2499 18.9262 35.5339 18.8227C35.8179 18.7131 36.2893 18.5 36.5915 18.3417C36.8876 18.1834 37.3227 17.9215 37.5584 17.7632C37.788 17.6049 38.1627 17.3187 38.3863 17.1299C38.6038 16.9351 38.9664 16.5697 39.184 16.3201C39.4015 16.0704 39.6795 15.6807 39.7943 15.4493C39.9092 15.224 40.0059 14.9682 40.0059 14.8708C40.0059 14.7795 39.9213 14.542 39.8246 14.341C39.7279 14.1401 39.4559 13.7565 39.2323 13.4886C39.0027 13.2206 38.6038 12.8187 38.3379 12.5995C38.0781 12.3803 37.6974 12.088 37.4979 11.9541C37.2985 11.8201 36.7969 11.54 36.3799 11.333C35.963 11.1259 35.4856 10.9128 35.3224 10.8641L35.0202 10.7667C34.5489 11.0894 34.2527 11.2416 34.0533 11.3208C33.8539 11.3939 33.5397 11.4974 33.3584 11.5461C33.1771 11.5948 32.8084 11.6313 32.5425 11.6313C32.2766 11.6313 31.8899 11.5887 31.6784 11.54C31.4729 11.4913 31.1224 11.3634 30.8927 11.2599C30.6691 11.1625 30.3972 11.0102 30.2884 10.925C30.1857 10.8458 30.0225 10.7788 29.9258 10.7788C29.8352 10.7849 29.5451 10.8763 29.2792 10.9859ZM23.8524 14.408C23.5442 14.6577 23.1454 14.9378 22.9641 15.0352C22.7828 15.1326 22.4262 15.2849 22.1785 15.3762C21.9307 15.4615 21.55 15.5711 21.3324 15.6198C21.1149 15.6624 20.6375 15.7233 20.2749 15.7416C19.8821 15.7659 19.3624 15.7538 19.0058 15.7172C18.6734 15.6807 18.196 15.5893 17.9482 15.5224C17.7005 15.4493 17.3016 15.3092 17.072 15.1996C16.8363 15.09 16.4858 14.8952 16.2924 14.7612C16.093 14.6333 15.7969 14.4019 15.6337 14.2497L15.3376 13.9757C14.8058 14.1645 14.2861 14.4019 13.8389 14.6333C13.3917 14.8586 12.7632 15.2179 12.449 15.431C12.1347 15.6441 11.6573 15.9973 11.3914 16.2104C11.1255 16.4297 10.6904 16.8194 10.4245 17.0873C10.1586 17.3552 9.75369 17.8058 9.5301 18.0859C9.30045 18.3721 9.04664 18.7375 8.95599 18.908C8.83513 19.1455 8.79283 19.3281 8.7747 19.73C8.7747 19.73 8.7747 20.3268 8.8593 20.5825C8.91973 20.7652 9.13125 21.1366 9.32463 21.4046C9.52405 21.6725 10.0256 22.2327 10.4487 22.6529C10.8656 23.073 11.47 23.615 11.7842 23.8524C12.0984 24.0899 12.6423 24.4553 12.9928 24.6684C13.3433 24.8754 13.8993 25.1738 14.2317 25.3321C14.5641 25.4904 15.0777 25.7097 15.3799 25.8132C15.676 25.9228 16.2501 26.0933 16.649 26.1907C17.0478 26.2881 17.6582 26.4038 18.0026 26.4465C18.3954 26.4891 18.6372 26.55 18.6493 26.5926C18.6674 26.6535 18.9695 26.6718 19.8821 26.6718C20.7946 26.6718 21.0967 26.6535 21.1149 26.5926C21.127 26.55 21.3808 26.4891 21.7917 26.4404C22.1543 26.3916 22.8009 26.2699 23.236 26.1603C23.6651 26.0446 24.3178 25.8375 24.6864 25.6914C25.049 25.5513 25.6352 25.2834 25.9857 25.1007C26.3362 24.9241 26.8922 24.5953 27.2245 24.3761C27.5569 24.1569 28.0706 23.7794 28.3727 23.5358C28.6688 23.2922 29.1765 22.8234 29.4968 22.4945C29.811 22.1596 30.2401 21.6603 30.4516 21.3741C30.6933 21.0392 30.8625 20.7408 30.923 20.5216C30.9894 20.2902 31.0076 20.0406 30.9894 19.6996C30.9653 19.3586 30.9169 19.1272 30.8202 18.9384C30.7417 18.7862 30.5604 18.5 30.4032 18.2991C30.2522 18.0981 29.8412 17.6353 29.4907 17.27C29.1402 16.9107 28.6265 16.4236 28.3425 16.1983C28.0585 15.973 27.569 15.6198 27.2547 15.4067C26.9405 15.1996 26.3422 14.8586 25.9252 14.6455C25.5083 14.4385 25.0006 14.1949 24.7891 14.1097L24.4084 13.9574L23.8524 14.408ZM6.73815 0.469767C6.64146 0.481946 6.40577 0.536749 6.22448 0.585463C6.04318 0.640266 5.74102 0.755961 5.55973 0.853389C5.37843 0.944728 5.07627 1.13349 4.89498 1.27355C4.71368 1.4136 4.45987 1.65108 4.33296 1.8094C4.20605 1.96772 3.9885 2.33307 3.84346 2.61927C3.68634 2.92982 3.55943 3.30126 3.51109 3.5631C3.46274 3.84929 3.44461 4.48257 3.4567 5.5421C3.48087 6.96698 3.49296 7.1253 3.61987 7.49066C3.69238 7.70378 3.86159 8.06913 3.99454 8.29444C4.12145 8.51974 4.38131 8.85465 4.5626 9.04341C4.7439 9.22609 5.08232 9.48184 5.30591 9.6158C5.52951 9.74976 5.88606 9.91417 6.10361 9.98724C6.35743 10.0725 6.71397 10.1334 7.10074 10.1517C7.52376 10.1699 7.84405 10.1517 8.15829 10.0847C8.40606 10.0299 8.84117 9.87155 9.1252 9.7315C9.49988 9.53664 9.75369 9.35396 10.0619 9.04341C10.358 8.75113 10.5695 8.46494 10.7387 8.13003C10.8777 7.8621 11.0348 7.46021 11.0832 7.24709C11.1557 6.94263 11.1799 6.48593 11.1799 5.29853C11.1799 4.11722 11.1557 3.64835 11.0892 3.34998C11.0348 3.13076 10.8838 2.74714 10.7508 2.49748C10.6179 2.24174 10.3882 1.90074 10.2492 1.73633C10.1102 1.56583 9.80808 1.30399 9.5724 1.14567C9.34276 0.993441 8.99225 0.798586 8.79283 0.713337C8.5934 0.628087 8.23686 0.530659 7.99513 0.494124C7.7534 0.457589 7.41498 0.427143 7.23973 0.433232C7.06448 0.439321 6.84088 0.451499 6.73815 0.469767ZM32.1195 0.463678C32.053 0.475856 31.8476 0.518481 31.6663 0.555016C31.485 0.591552 31.1586 0.713337 30.9411 0.822943C30.7235 0.932549 30.3912 1.13958 30.1978 1.28572C29.9984 1.43187 29.7204 1.71806 29.5693 1.91901C29.4242 2.11995 29.2188 2.46095 29.116 2.68016C29.0133 2.89328 28.8924 3.26473 28.8441 3.50221C28.7776 3.82494 28.7655 4.2999 28.7776 5.51166C28.8018 6.93654 28.8139 7.13139 28.9347 7.49066C29.0073 7.70378 29.1704 8.06305 29.2913 8.27617C29.4182 8.49538 29.672 8.8242 29.8533 9.01297C30.0346 9.20173 30.3791 9.46966 30.6087 9.60362C30.8444 9.74367 31.207 9.91417 31.4245 9.98724C31.6784 10.0725 32.0349 10.1334 32.4217 10.1517C32.8447 10.1699 33.165 10.1517 33.4792 10.0847C33.727 10.0299 34.1621 9.87155 34.4461 9.7315C34.8208 9.53664 35.0746 9.35396 35.3828 9.04341C35.6789 8.75113 35.8904 8.46494 36.0597 8.13003C36.1987 7.8621 36.3558 7.46021 36.4041 7.24709C36.4766 6.94263 36.5008 6.48593 36.5008 5.31071C36.5008 4.40341 36.4766 3.64226 36.4343 3.45349C36.3981 3.27691 36.2833 2.95418 36.1866 2.74105C36.0899 2.52184 35.8905 2.17475 35.7394 1.96163C35.5943 1.7546 35.3345 1.4684 35.1592 1.33444C34.984 1.19439 34.6214 0.969085 34.3555 0.835121C34.0594 0.68289 33.6968 0.561106 33.4188 0.512392C33.171 0.463678 32.8024 0.433232 32.603 0.433232C32.4035 0.439321 32.186 0.451499 32.1195 0.463678ZM4.32087 10.9859C4.05497 11.0955 3.63195 11.2903 3.38418 11.4121C3.13641 11.54 2.71339 11.7897 2.44749 11.9723C2.18159 12.1489 1.77065 12.4717 1.52892 12.6787C1.29324 12.8857 0.93065 13.2511 0.725182 13.4886C0.525757 13.7199 0.277986 14.0792 0.181295 14.2802C0.0725182 14.5055 0.00604318 14.7429 0 14.9013C0 15.0657 0.0543886 15.2666 0.157123 15.4493C0.241727 15.6076 0.416979 15.8755 0.543886 16.046C0.670793 16.2104 1.00317 16.5697 1.28115 16.8376C1.55914 17.1056 1.98821 17.4709 2.23598 17.6475C2.48375 17.8241 2.90677 18.092 3.17267 18.2382C3.43857 18.3843 3.86159 18.5913 4.10936 18.6949C4.35713 18.7984 4.86476 18.9628 5.22735 19.0602L5.8921 19.2307C6.04318 18.6035 6.13987 18.3234 6.19426 18.2077C6.25469 18.0859 6.42994 17.8302 6.58102 17.6292C6.7321 17.4283 7.16117 16.9533 7.52376 16.5697C7.89239 16.1922 8.43628 15.6807 8.7324 15.4371C9.03456 15.1875 9.54823 14.8099 9.8806 14.5846C10.213 14.3654 10.8415 14.0061 11.2705 13.793C11.7056 13.5799 12.3825 13.2876 12.7813 13.1536C13.1802 13.0197 13.5488 12.8918 13.5972 12.8735C13.6636 12.8553 13.6213 12.7883 13.4461 12.6361C13.3131 12.5204 12.9747 12.2646 12.6907 12.0637C12.4067 11.8688 11.9715 11.5948 11.7238 11.4608C11.476 11.3269 11.0288 11.1198 10.7266 10.9981C10.4305 10.8763 10.1163 10.7788 10.0317 10.7788C9.94707 10.7788 9.72952 10.8824 9.54823 11.0041C9.36693 11.1259 8.98621 11.3147 8.70218 11.4121C8.23686 11.5826 8.12204 11.6009 7.43311 11.6009C6.76836 11.6009 6.61728 11.5765 6.19426 11.4304C5.92836 11.3451 5.5416 11.1564 5.33613 11.0224C5.12462 10.8885 4.92519 10.7788 4.88289 10.7788C4.84059 10.7788 4.58677 10.8702 4.32087 10.9859Z" fill="url(#paint0_linear_127_97)"/>
<path d="M73.2728 4.31013L65.444 22.3612H61.31L53.5071 4.31013H58.0287L63.5321 17.2038L69.113 4.31013H73.2728Z" fill="url(#paint1_linear_127_97)"/>
<path d="M83.3148 22.6707C81.4372 22.6707 79.7406 22.2667 78.2248 21.4587C76.7262 20.6507 75.5463 19.5418 74.685 18.1321C73.841 16.7052 73.419 15.1064 73.419 13.3357C73.419 11.5649 73.841 9.97473 74.685 8.56503C75.5463 7.13814 76.7262 6.02069 78.2248 5.21269C79.7406 4.40469 81.4372 4.00069 83.3148 4.00069C85.1923 4.00069 86.8803 4.40469 88.3789 5.21269C89.8775 6.02069 91.0574 7.13814 91.9187 8.56503C92.7799 9.97473 93.2105 11.5649 93.2105 13.3357C93.2105 15.1064 92.7799 16.7052 91.9187 18.1321C91.0574 19.5418 89.8775 20.6507 88.3789 21.4587C86.8803 22.2667 85.1923 22.6707 83.3148 22.6707ZM83.3148 19.112C84.3827 19.112 85.3473 18.8713 86.2086 18.39C87.0698 17.8914 87.7416 17.2038 88.2239 16.327C88.7234 15.4502 88.9732 14.4531 88.9732 13.3357C88.9732 12.2182 88.7234 11.2211 88.2239 10.3444C87.7416 9.46758 87.0698 8.78852 86.2086 8.30716C85.3473 7.8086 84.3827 7.55933 83.3148 7.55933C82.2468 7.55933 81.2822 7.8086 80.4209 8.30716C79.5597 8.78852 78.8793 9.46758 78.3798 10.3444C77.8975 11.2211 77.6563 12.2182 77.6563 13.3357C77.6563 14.4531 77.8975 15.4502 78.3798 16.327C78.8793 17.2038 79.5597 17.8914 80.4209 18.39C81.2822 18.8713 82.2468 19.112 83.3148 19.112Z" fill="url(#paint2_linear_127_97)"/>
<path d="M113.139 4.31013L105.311 22.3612H101.177L93.3736 4.31013H97.8952L103.399 17.2038L108.98 4.31013H113.139Z" fill="url(#paint3_linear_127_97)"/>
<path d="M122.662 4.00069C124.333 4.00069 125.788 4.32733 127.029 4.9806C128.269 5.63388 129.233 6.5966 129.922 7.86877C130.611 9.14094 130.956 10.6796 130.956 12.4847V22.3612H126.77V18.029H118.502V22.3612H114.368V12.4847C114.368 10.6796 114.713 9.14094 115.402 7.86877C116.091 6.5966 117.055 5.63388 118.296 4.9806C119.536 4.32733 120.991 4.00069 122.662 4.00069ZM126.77 14.6766V12.0979C126.77 10.6022 126.4 9.47618 125.659 8.71975C124.919 7.94614 123.911 7.55933 122.636 7.55933C121.344 7.55933 120.328 7.94614 119.587 8.71975C118.864 9.47618 118.502 10.6022 118.502 12.0979V14.6766H126.77Z" fill="url(#paint4_linear_127_97)"/>
<path d="M144.673 4.00069C146.826 4.00069 148.506 4.67975 149.711 6.03788C150.917 7.37882 151.52 9.29567 151.52 11.7884V22.3612H147.334V11.9174C147.334 10.4733 146.99 9.39022 146.301 8.66818C145.629 7.92894 144.69 7.55933 143.485 7.55933C142.21 7.55933 141.185 7.95473 140.41 8.74554C139.652 9.51916 139.273 10.671 139.273 12.201V22.3612H135.087V4.31013H139.144V6.50205C139.764 5.67686 140.539 5.05796 141.469 4.64537C142.399 4.21558 143.467 4.00069 144.673 4.00069Z" fill="url(#paint5_linear_127_97)"/>
<path d="M168.692 4.33667C170.296 4.33667 171.684 4.60314 172.857 5.13608C174.046 5.66902 174.96 6.42545 175.598 7.40537C176.236 8.38529 176.555 9.54572 176.555 10.8867C176.555 12.2104 176.236 13.3708 175.598 14.368C174.96 15.3479 174.046 16.1043 172.857 16.6372C171.684 17.153 170.296 17.4109 168.692 17.4109H165.045V22.3878H160.855V4.33667H168.692ZM168.459 14.0069C169.718 14.0069 170.675 13.7405 171.33 13.2075C171.986 12.6574 172.313 11.8838 172.313 10.8867C172.313 9.87236 171.986 9.09874 171.33 8.5658C170.675 8.01567 169.718 7.7406 168.459 7.7406H165.045V14.0069H168.459Z" fill="url(#paint6_linear_127_97)"/>
<path d="M187.442 4.02722C189.115 4.02722 190.572 4.35386 191.814 5.00714C193.055 5.66042 194.021 6.62315 194.711 7.89533C195.4 9.1675 195.745 10.7062 195.745 12.5113V22.3878H191.555V18.0555H183.278V22.3878H179.139V12.5113C179.139 10.7062 179.484 9.1675 180.174 7.89533C180.864 6.62315 181.829 5.66042 183.071 5.00714C184.312 4.35386 185.77 4.02722 187.442 4.02722ZM191.555 14.7032V12.1245C191.555 10.6288 191.184 9.50274 190.443 8.74631C189.701 7.97269 188.692 7.58588 187.416 7.58588C186.123 7.58588 185.106 7.97269 184.364 8.74631C183.64 9.50274 183.278 10.6288 183.278 12.1245V14.7032H191.555Z" fill="url(#paint7_linear_127_97)"/>
<path d="M211.417 22.3878L207.926 17.3593H204.071V22.3878H199.881V4.33667H207.719C209.322 4.33667 210.71 4.60314 211.883 5.13608C213.073 5.66902 213.987 6.42545 214.625 7.40537C215.263 8.38529 215.582 9.54572 215.582 10.8867C215.582 12.2276 215.254 13.388 214.599 14.368C213.961 15.3307 213.047 16.0699 211.857 16.5857L215.918 22.3878H211.417ZM211.34 10.8867C211.34 9.87236 211.012 9.09874 210.357 8.5658C209.702 8.01567 208.745 7.7406 207.486 7.7406H204.071V14.0327H207.486C208.745 14.0327 209.702 13.7577 210.357 13.2075C211.012 12.6574 211.34 11.8838 211.34 10.8867Z" fill="url(#paint8_linear_127_97)"/>
<path d="M232.094 9.391C230.542 8.49703 228.878 7.92111 227.101 7.66324V22.3878H222.911V7.66324C221.135 7.92111 219.462 8.49703 217.893 9.391L216.47 6.27072C217.712 5.53148 219.057 4.97276 220.506 4.59454C221.954 4.21633 223.446 4.02722 224.98 4.02722C226.532 4.02722 228.033 4.21633 229.481 4.59454C230.947 4.97276 232.292 5.53148 233.516 6.27072L232.094 9.391Z" fill="url(#paint9_linear_127_97)"/>
<path d="M244.993 4.02722C247.148 4.02722 248.83 4.70629 250.037 6.06442C251.244 7.40537 251.847 9.32223 251.847 11.815V22.3878H247.657V11.9439C247.657 10.4999 247.312 9.41678 246.623 8.69474C245.95 7.9555 245.01 7.58588 243.803 7.58588C242.527 7.58588 241.501 7.98129 240.725 8.7721C239.966 9.54572 239.587 10.6976 239.587 12.2276V22.3878H235.397V4.33667H239.458V6.5286C240.078 5.7034 240.854 5.0845 241.786 4.6719C242.717 4.24212 243.786 4.02722 244.993 4.02722Z" fill="url(#paint10_linear_127_97)"/>
<path d="M270.779 20.8406C269.917 21.4251 268.83 21.8807 267.52 22.2073C266.226 22.534 264.847 22.6973 263.381 22.6973C261.553 22.6973 260.001 22.4738 258.725 22.0268C257.449 21.5626 256.484 20.9265 255.828 20.1185C255.173 19.2933 254.845 18.3564 254.845 17.3077C254.845 16.345 255.113 15.494 255.647 14.7548C256.182 14.0155 256.915 13.4654 257.846 13.1044C257.139 12.7262 256.587 12.2104 256.19 11.5571C255.811 10.9039 255.621 10.1732 255.621 9.36521C255.621 8.38529 255.923 7.49132 256.527 6.68332C257.13 5.87532 258.044 5.23063 259.268 4.74927C260.493 4.2679 261.993 4.02722 263.769 4.02722C264.942 4.02722 266.088 4.14756 267.209 4.38824C268.33 4.61173 269.304 4.92118 270.132 5.31659L268.968 8.51422C267.382 7.77499 265.7 7.40537 263.924 7.40537C262.579 7.40537 261.562 7.61167 260.872 8.02426C260.2 8.41967 259.863 8.96121 259.863 9.64887C259.863 10.285 260.088 10.7749 260.536 11.1187C261.001 11.4454 261.7 11.6087 262.631 11.6087H267.571V14.9095H262.372C261.32 14.9095 260.51 15.09 259.941 15.451C259.372 15.812 259.087 16.3364 259.087 17.0241C259.087 17.7461 259.449 18.3134 260.174 18.726C260.915 19.1214 262.045 19.3191 263.562 19.3191C264.631 19.3191 265.7 19.1816 266.77 18.9065C267.839 18.6143 268.744 18.2103 269.486 17.6945L270.779 20.8406Z" fill="url(#paint11_linear_127_97)"/>
<path d="M284.772 22.3878L281.28 17.3593H277.426V22.3878H273.236V4.33667H281.073C282.677 4.33667 284.065 4.60314 285.238 5.13608C286.428 5.66902 287.342 6.42545 287.98 7.40537C288.618 8.38529 288.937 9.54572 288.937 10.8867C288.937 12.2276 288.609 13.388 287.954 14.368C287.316 15.3307 286.402 16.0699 285.212 16.5857L289.273 22.3878H284.772ZM284.695 10.8867C284.695 9.87236 284.367 9.09874 283.712 8.5658C283.056 8.01567 282.099 7.7406 280.841 7.7406H277.426V14.0327H280.841C282.099 14.0327 283.056 13.7577 283.712 13.2075C284.367 12.6574 284.695 11.8838 284.695 10.8867Z" fill="url(#paint12_linear_127_97)"/>
<path d="M298.206 22.6973C296.775 22.6973 295.386 22.5082 294.041 22.13C292.714 21.7346 291.645 21.2274 290.834 20.6085L292.257 17.4624C293.033 18.0298 293.955 18.4853 295.024 18.8292C296.093 19.173 297.163 19.3449 298.232 19.3449C299.422 19.3449 300.301 19.173 300.87 18.8292C301.439 18.4681 301.724 17.9954 301.724 17.4109C301.724 16.9811 301.551 16.6286 301.206 16.3536C300.879 16.0613 300.448 15.8292 299.913 15.6573C299.396 15.4854 298.689 15.2963 297.792 15.09C296.412 14.7634 295.283 14.4367 294.404 14.1101C293.524 13.7834 292.765 13.2591 292.127 12.5371C291.507 11.815 291.196 10.8523 291.196 9.64887C291.196 8.60018 291.481 7.65464 292.05 6.81226C292.619 5.95268 293.472 5.27361 294.61 4.77506C295.766 4.2765 297.171 4.02722 298.827 4.02722C299.982 4.02722 301.111 4.16475 302.215 4.43982C303.319 4.71488 304.284 5.11029 305.112 5.62604L303.819 8.79788C302.146 7.85235 300.473 7.37958 298.801 7.37958C297.628 7.37958 296.757 7.56869 296.188 7.9469C295.637 8.32512 295.361 8.82367 295.361 9.44257C295.361 10.0615 295.68 10.5256 296.318 10.8351C296.973 11.1273 297.964 11.4196 299.292 11.7119C300.672 12.0385 301.801 12.3651 302.681 12.6918C303.56 13.0184 304.31 13.5342 304.931 14.239C305.569 14.9439 305.888 15.898 305.888 17.1014C305.888 18.1329 305.595 19.0784 305.009 19.938C304.44 20.7804 303.577 21.4509 302.422 21.9494C301.267 22.448 299.861 22.6973 298.206 22.6973Z" fill="url(#paint13_linear_127_97)"/>
<defs>
<linearGradient id="paint0_linear_127_97" x1="42.6729" y1="8.00153" x2="-0.000165442" y2="17.6693" gradientUnits="userSpaceOnUse">
<stop offset="0.13526" stop-color="white"/>
<stop offset="1" stop-color="#666666"/>
</linearGradient>
<linearGradient id="paint1_linear_127_97" x1="55.5712" y1="39.0625" x2="333.764" y2="19.266" gradientUnits="userSpaceOnUse">
<stop stop-color="white"/>
<stop offset="1" stop-color="white" stop-opacity="0"/>
</linearGradient>
<linearGradient id="paint2_linear_127_97" x1="55.5712" y1="39.0625" x2="333.764" y2="19.266" gradientUnits="userSpaceOnUse">
<stop stop-color="white"/>
<stop offset="1" stop-color="white" stop-opacity="0"/>
</linearGradient>
<linearGradient id="paint3_linear_127_97" x1="55.5712" y1="39.0625" x2="333.764" y2="19.266" gradientUnits="userSpaceOnUse">
<stop stop-color="white"/>
<stop offset="1" stop-color="white" stop-opacity="0"/>
</linearGradient>
<linearGradient id="paint4_linear_127_97" x1="55.5712" y1="39.0625" x2="333.764" y2="19.266" gradientUnits="userSpaceOnUse">
<stop stop-color="white"/>
<stop offset="1" stop-color="white" stop-opacity="0"/>
</linearGradient>
<linearGradient id="paint5_linear_127_97" x1="55.5712" y1="39.0625" x2="333.764" y2="19.266" gradientUnits="userSpaceOnUse">
<stop stop-color="white"/>
<stop offset="1" stop-color="white" stop-opacity="0"/>
</linearGradient>
<linearGradient id="paint6_linear_127_97" x1="160.541" y1="7.68079" x2="439.038" y2="-12.1592" gradientUnits="userSpaceOnUse">
<stop stop-color="white"/>
<stop offset="1" stop-color="white" stop-opacity="0"/>
</linearGradient>
<linearGradient id="paint7_linear_127_97" x1="160.541" y1="7.68079" x2="439.038" y2="-12.1592" gradientUnits="userSpaceOnUse">
<stop stop-color="white"/>
<stop offset="1" stop-color="white" stop-opacity="0"/>
</linearGradient>
<linearGradient id="paint8_linear_127_97" x1="160.541" y1="7.68079" x2="439.038" y2="-12.1592" gradientUnits="userSpaceOnUse">
<stop stop-color="white"/>
<stop offset="1" stop-color="white" stop-opacity="0"/>
</linearGradient>
<linearGradient id="paint9_linear_127_97" x1="160.541" y1="7.68079" x2="439.038" y2="-12.1592" gradientUnits="userSpaceOnUse">
<stop stop-color="white"/>
<stop offset="1" stop-color="white" stop-opacity="0"/>
</linearGradient>
<linearGradient id="paint10_linear_127_97" x1="160.541" y1="7.68079" x2="439.038" y2="-12.1592" gradientUnits="userSpaceOnUse">
<stop stop-color="white"/>
<stop offset="1" stop-color="white" stop-opacity="0"/>
</linearGradient>
<linearGradient id="paint11_linear_127_97" x1="160.541" y1="7.68079" x2="439.038" y2="-12.1592" gradientUnits="userSpaceOnUse">
<stop stop-color="white"/>
<stop offset="1" stop-color="white" stop-opacity="0"/>
</linearGradient>
<linearGradient id="paint12_linear_127_97" x1="160.541" y1="7.68079" x2="439.038" y2="-12.1592" gradientUnits="userSpaceOnUse">
<stop stop-color="white"/>
<stop offset="1" stop-color="white" stop-opacity="0"/>
</linearGradient>
<linearGradient id="paint13_linear_127_97" x1="160.541" y1="7.68079" x2="439.038" y2="-12.1592" gradientUnits="userSpaceOnUse">
<stop stop-color="white"/>
<stop offset="1" stop-color="white" stop-opacity="0"/>
</linearGradient>
</defs>
</svg>
